[center][img]http://img863.imageshack.us/img863/4923/seasonofthewitchposter5.jpg[/img]



[img]http://leetleech.org/images/48874973695367351744.png[/img]


Format                           : AVI
Format/Info                      : Audio Video Interleave
Format profile                   : OpenDML
File size                        : 1.43 GiB
Duration                         : 1h 28mn
Overall bit rate                 : 2 305 Kbps
Writing library                  : MPlayer

Video
ID                               : 0
Format                           : MPEG-4 Visual
Format profile                   : Advanced Simple@L5
Format settings, BVOP            : Yes
Format settings, QPel            : No
Format settings, GMC             : No warppoints
Format settings, Matrix          : Default (H.263)
Codec ID                         : XVID
Codec ID/Hint                    : XviD
Duration                         : 1h 28mn
Bit rate                         : 1 660 Kbps
Width                            : 720 pixels
Height                           : 400 pixels
Display aspect ratio             : 16:9
Frame rate                       : 23.976 fps
Color space                      : YUV
Chroma subsampling               : 4:2:0
Bit depth                        : 8 bits
Scan type                        : Progressive
Bits/(Pixel*Frame)               : 0.240
Stream size                      : 1.03 GiB (72%)
Writing library                  : XviD 1.2.1 (UTC 2008-12-04)

Audio
ID                               : 1
Format                           : AC-3
Format/Info                      : Audio Coding 3
Mode extension                   : CM (complete main)
Codec ID                         : 2000
Duration                         : 1h 28mn
Bit rate mode                    : Constant
Bit rate                         : 640 Kbps
Channel(s)                       : 6 channels
Channel positions                : Front: L C R, Side: L R, LFE
Sampling rate                    : 48.0 KHz
Bit depth                        : 16 bits
Stream size                      : 407 MiB (28%)
Alignment                        : Split accross interleaves
Interleave, duration             : 500 ms (11.99 video frames)
Interleave, preload duration     : 500 ms




[url]http://www.imdb.com/title/tt0479997/[/url]




[IMG]http://leetleech.org/images/89524873606771859129.png[/IMG]



Storyline

A 14th century Crusader returns to a homeland devastated by the Black Plague. A beleaguered church, deeming sorcery the culprit of the plague, commands the two knights to transport an accused witch to a remote abbey, where monks will perform a ritual in hopes of ending the pestilence. A priest, a grieving knight, a disgraced itinerant and a headstrong youth who can only dream of becoming a knight join a mission troubled by mythically hostile wilderness and fierce contention over the fate of the girl. When the embattled party arrives at the abbey, a horrific discovery jeopardises the knight's pledge to ensure the girl fair treatment, and pits them against an inexplicably powerful and destructive force. 


[img]http://leetleech.org/images/95521316153253938506.png[/img]




[img]http://img251.imageshack.us/img251/1539/vlcsnap2011031609h01m08.png[/img]

[img]http://img813.imageshack.us/img813/1699/vlcsnap2011031609h00m48.png[/img]

[img]http://img843.imageshack.us/img843/4307/vlcsnap2011031609h01m01.png[/img]



Source...............: Bluray.1080p.DTS-HD.MA.ELEKTRI4KA ................ Thanks 


Totally sick to death of Season Of The Witch now :-)  but here my last copy a nice BRRip 

Enjoy !



Greetz to Imagine ,Flawl3ss,DiLLoN,BDK,NOiR,TOXiCiNK,THC,Ez,Rx,





[img]http://img411.imageshack.us/img411/6898/sig1n.jpg[/img]




